<svg width="100" height="100" viewBox="0 0 100 100" fill="none" xmlns="http://www.w3.org/2000/svg">
<rect width="100" height="100" fill="#D9D9D9"/>
<path d="M38.41 39C39.21 39 39.61 42.5 39.61 49.5C39.61 56.5 39.25 60 38.53 60C37.81 60 37.43 59.89 37.39 59.67L37.21 57.63V56.07C37.21 55.75 37.17 55.7 37.09 55.92C37.01 56.12 36.89 56.58 36.73 57.3L34.33 60.3H30.61L28 58.32L26.53 54.78V50.28L28.03 46.71L30.79 44.7H36.28C36.6 46.22 36.83 46.93 36.97 46.83C37.13 46.71 37.21 45.8 37.21 44.1C37.21 40.7 37.61 39 38.41 39ZM34.96 57.99L37.21 54.9V50.01L34.96 47.04H30.85L28.93 49.98V54.99L31 57.99H34.96ZM55.5941 45C55.8141 45 55.8741 45.3 55.7741 45.9C55.6941 46.48 55.5041 47.27 55.2041 48.27C54.9041 49.27 54.5241 50.4 54.0641 51.66C53.6241 52.9 53.1341 54.18 52.5941 55.5C52.0541 56.82 51.5041 58.11 50.9441 59.37C50.3841 60.61 49.8441 61.73 49.3241 62.73C48.8241 63.73 48.3741 64.52 47.9741 65.1C47.5941 65.7 47.2941 66 47.0741 66C46.2341 66 46.2641 64.96 47.1641 62.88C48.0641 60.84 47.5341 57.34 45.5741 52.38C43.6341 47.46 43.0841 45 43.9241 45C44.7641 45 45.9441 46.98 47.4641 50.94C48.9841 54.88 50.5041 54.88 52.0241 50.94C53.5641 46.98 54.7541 45 55.5941 45ZM72.0583 45C72.2983 45 72.4483 45.27 72.5083 45.81C72.5883 46.35 72.5883 47.07 72.5083 47.97C72.4483 48.85 72.3283 49.83 72.1483 50.91C71.9683 51.97 71.7583 53.04 71.5183 54.12C71.2783 55.18 71.0183 56.16 70.7383 57.06C70.4783 57.94 70.2183 58.65 69.9583 59.19C69.6983 59.73 69.4683 60 69.2683 60C68.5483 60 67.8383 58.23 67.1383 54.69C66.7983 52.91 66.4483 52.02 66.0883 52.02C65.7283 52.02 65.3783 52.91 65.0383 54.69C64.3583 58.23 63.6483 60 62.9083 60C62.7083 60 62.4783 59.73 62.2183 59.19C61.9783 58.65 61.7283 57.94 61.4683 57.06C61.2283 56.16 60.9983 55.18 60.7783 54.12C60.5583 53.04 60.3683 51.97 60.2083 50.91C60.0683 49.83 59.9683 48.85 59.9083 47.97C59.8683 47.07 59.8883 46.35 59.9683 45.81C60.0483 45.27 60.2083 45 60.4483 45C61.3283 45 62.0183 46.78 62.5183 50.34C63.0383 53.9 63.5783 53.9 64.1383 50.34C64.6783 46.78 65.3383 45 66.1183 45C66.8783 45 67.5283 46.82 68.0683 50.46C68.3283 52.28 68.5983 53.19 68.8783 53.19C69.1783 53.19 69.4883 52.28 69.8083 50.46C70.4483 46.82 71.1983 45 72.0583 45Z" fill="black"/>
</svg>
